# xmcd
#
# Track frame offsets:
#	150
#	11759
#	21534
#	29969
#	43329
#	55546
#	63696
#	76019
#	89794
#	99264
#	112859
#	121776
#	132789
#	144981
#	159549
#	173721
#
# Disc length: 2467 seconds
#
# Revision: 1
# Processed by: cddbd v1.5.1PL2 Copyright (c) Steve Scherf et al.
# Submitted via: audiograbber 1.83.01
#
DISCID=d409a110
DTITLE=Willie Nelson - On The Road [CD 2)
DYEAR=2004
DGENRE=Country
TTITLE0=The Last Letter
TTITLE1=Half A Man
TTITLE2=You Wouldn´t Cross The Street To Say Goodbye
TTITLE3=I Just Don´t Understand
TTITLE4=Following Me Around
TTITLE5=Things To Remember
TTITLE6=I Hope So
TTITLE7=Everything But You
TTITLE8=One Step Beyond
TTITLE9=Undo The Wrong
TTITLE10=Why Are You Picking On Me?
TTITLE11=Blame It On The Time
TTITLE12=End Of Understanding
TTITLE13=Will You Rememner Me
TTITLE14=So Much To Do
TTITLE15=Suffering In Silence
EXTD=Luxory Edition
EXTT0=
EXTT1=
EXTT2=
EXTT3=
EXTT4=
EXTT5=
EXTT6=
EXTT7=
EXTT8=
EXTT9=
EXTT10=
EXTT11=
EXTT12=
EXTT13=
EXTT14=
EXTT15=
PLAYORDER=
